<svg preserveAspectRatio="xMidYMid meet" data-bbox="23.25 41.875 153.9 118.1" viewBox="23.25 41.875 153.9 118.1" height="200" width="200" xmlns="http://www.w3.org/2000/svg" data-type="color" role="img" aria-labelledby="comp-keggqkjr1-svgtitle"><title id="comp-keggqkjr1-svgtitle"></title>
    <g>
        <path d="M38.1 107.3h38.6l10.8-20c1.2-2.3 4-3.1 6.3-1.9 1 .5 1.7 1.4 2.1 2.4l15.2 38.7 9-16.8c.8-1.5 2.4-2.4 4.1-2.4h38l4.6-4.6c13.8-13.9 13.8-36.5 0-50.4-13.8-13.9-36.3-13.9-50.1 0l-15.1 15.1c-.8.8-2.1.8-2.9 0l-15-15.1c-13.8-13.9-36.3-13.9-50.1 0-13.8 13.9-13.8 36.5 0 50.4l4.5 4.6z" fill="#6dd1ca" data-color="1"></path>
        <path d="M125.5 114.3l-10.8 20c-.8 1.5-2.4 2.4-4.1 2.4h-.3c-1.8-.1-3.4-1.2-4-2.9L91.2 95.1l-9 16.8c-.8 1.5-2.4 2.4-4.1 2.4H45l20.9 21c.2.2.4.5.7.8L83.4 153c9.2 9.3 24.2 9.3 33.4 0l16.8-16.9c.2-.2.4-.5.7-.8l20.9-21h-29.7z" fill="#2289e8" data-color="2"></path>
    </g>
</svg>