<svg preserveAspectRatio="xMidYMid meet" data-bbox="17.5 13.001 165.001 173.999" viewBox="17.5 13.001 165.001 173.999" height="200" width="200" xmlns="http://www.w3.org/2000/svg" data-type="color" role="img" aria-labelledby="comp-kckjiu4v-svgtitle"><title id="comp-kckjiu4v-svgtitle"></title>
    <g>
        <path fill="#F3EBD7" d="M18.359 152.365l82.59 3.729 78.417 3.54.859 27.366-79.276-2.5-83.449-2.631.859-29.504z" data-color="1"></path>
        <path d="M53.468 162.059c-1.065 1.632-2.57 3.345-3.051 5.21-.304 1.179-.492 5.716-2.558 5.366-.607-.103-.647-.694-1.088-1.015-.247-.18-.811-.268-1.168-.472-3.922-2.239 1.886-9.994 3.334-12.203l4.531 3.114z" fill="#C8915C" data-color="2"></path>
        <path d="M136.076 162.188s.133 7.334.133 7.474c0 .155 1.79 1.14 1.92 1.222.395.247.812.457 1.234.653.542.252 1.004.583 1.555.8.591.232 1.297.594 1.958.546.207-.015.437-.162.622-.01.141.115-.111.22.164.285.195.046.35-.25.521-.173.152.068.104.244.108.409.365.021 1.045-.132.922.461-.111.534-.807.809-1.277.883-.52.082-1.041.138-1.568.202-.941.116-1.841.099-2.793.079-2.721-.055-5.543.067-8.248-.269-1.246-.155-.779-2.327-.779-2.327l-.156-9.775 5.684-.46z" fill="#C8915C" data-color="2"></path>
        <path d="M108.803 100.732c4.517.273 9.058.737 13.596.882 4.572 6.49 13.955 19.769 14.758 20.569 1.066 1.061 2.486 3.891 1.776 7.075-.251 1.124-.212 2.351-.245 3.495a222.94 222.94 0 0 0-.071 6.334 866.24 866.24 0 0 0 .151 15.122c.027 1.588.056 3.176.088 4.763.03 1.478.371 3.301-.525 4.605a3.03 3.03 0 0 1-1.056.931v4.097h-7.604l.192-3.906c-.364-.237-.894-.557-1.199-.964-1.392-1.863-1.15-8.382-1.26-9.448a36.908 36.908 0 0 1-.194-3.805c0-7.429-.355-21.225-.355-21.225l-23.506-13.56.001-.014-2.401 1.755-18.405 13.627c-.011.073-.213.116-.228.191 0 0-18.906 29.312-28.039 30.507l-1.902 1.792-4.729-4.04v-.293l1.75-1.62c-.642-2.75 2.239-7.997 6.911-14.612 3.164-4.48 7.794-9.235 13.239-14.999.269-.789.916-1.912 1.146-2.39.704-1.46 9.093-19.368 11.812-25.41l26.299.541z" fill="#FFB90F" data-color="3"></path>
        <path d="M20.43 41.272c-.267-.514-1.631-.132-1.425-1.057.809-.044 1.511.136 2.242.217.075-.523-.489-.345-.541-.782 1.769-.09 3.546.356 5.33.325l4.214-.072 6.095-.105 26.743.745c-.448 1.967-.721 3.978-.912 6.019a128.17 128.17 0 0 0-.197 2.396l-33.577-4.884c-.691-.101-1.575-.063-2.266 0-.691.063-1.718.787-2.37.558-.563-.198-.202-.807.256-1.045-.734-.658-5.11-.45-5.026-1.452.061-.728 1.831-.099 1.434-.863z" fill="#C8915C" data-color="2"></path>
        <path d="M139.113 47.252l8.482 1.207 22.541 2.566 6.686.49c.703.052 1.403.138 2.103.224.494.06.92-.031 1.41-.022.486.009 1.022.001 1.493.131.358.099.504.241.062.427-.166.07-.998.238-1.147.198.145.039 1.87.138 1.752.555-.167.592-1.986.05-2.374.229.433.252 1.239.098 1.562.542.46.633-1.486.435-1.743.472-.941.136-1.821.026-2.769.078.236.225.937.46.712.854-.247.432-1.155.103-1.488-.017-.75-.271-1.527-.68-2.333-.601-2.564.251-5.075.755-7.644.89-1.622.085-3.249.138-4.868.255l-22.704 1.639c.237-3.368.322-6.743.267-10.117z" fill="#C8915C" data-color="2"></path>
        <path d="M113.416 23.116l.058.029-.189.377-.058-.029c-.948-.474-1.659-.754-2.17-.048l-.343-.246c.76-1.053 1.882-.493 2.702-.083z" fill="#4C6E63" data-color="4"></path>
        <path d="M109.96 42.836c.014-3.152-.359-6.21.075-9.327 0 0-1.993-2.935.604-3.026.937-.033 3.218-2.04 3.218-2.04.345-.019.682.323 1.052.187.318-.118.127-.423.072-.694-.102-.506-.159-1.037-.231-1.551-.304-2.174-.848-4.264-.764-6.488.019-.52-.046-.98-.179-1.388a7.361 7.361 0 0 1-.459.056 2.313 2.313 0 0 1-1.418.03c-.674-.019-1.351-.063-2.048-.042a4.462 4.462 0 0 0-.095.009 18.228 18.228 0 0 0-2.332.607c-.146.049-.29.1-.434.154l-.058.028c-1.256.684-1.62 1.146-2.885 2.036-.074.052-.623.495-.45.33-.065.058-.131.116-.193.178-.058.212-.117.458-.131.501a5.384 5.384 0 0 1-.492 1.105c-.39.639-1.112 1.047-1.86 1.149v2.995c-2.196-1.132-2.156.683-1.881 2.716.332 2.445.189 7.734-.195 10.145 0 0-.11 3.063 5.167 3.465 5.273.4 5.917-1.135 5.917-1.135z" fill="#C8915C" data-color="2"></path>
        <path d="M111.584 24.322a2.23 2.23 0 0 1 1.423.126c.575.267.473.709-.157.728-.372.012-.83.056-1.202-.062-.147-.047-.563-.246-.58-.445-.018-.217.345-.3.516-.347z" fill="#FFFDF8" data-color="5"></path>
        <path d="M112.944 24.411a.26.26 0 0 1 .189.03c.294.171.383.834-.081.766-.369-.053-.527-.707-.108-.796z" fill="#000010" data-color="6"></path>
        <path d="M113.076 22.197c.491.257.073 1.007-.418.75-.644-.338-1.478-.149-2.007.322-.411.365-1.036-.226-.62-.595.823-.732 2.042-1.003 3.045-.477z" fill="#4C6E63" data-color="4"></path>
        <path d="M96.279 25.033c.066-.698.442-1.326.524-2.041.089-.774.212-1.447.271-2.239.145-1.918 1.558-3.794 2.98-5.045.264-.232.566-.433.895-.607 2.094-1.112 5.334-1.162 7.508-1.444.838-.109 1.472.239 2.271.259.704.018.932-.214 1.539-.542.601-.325.878-.403 1.64-.363.996.053.95.609 1.698.889 1.022.382 2.245-1.436 3.143-.445.993 1.095-.23 2.577-1.078 3.329-1.077.956-2.104 2.587-3.399 3.203-1.279.609-2.219.059-3.443-.201-1.4-.298-2.423.597-3.386 1.475-1.105 1.006-1.031 1.641-.724 3.05.231 1.06.334 1.867 1.105 2.684.491.521 1.064.959 1.664 1.349.556.362 1.127.726 1.802.799.351.038.708.032 1.057-.014.336-.043.656-.133.924-.338.115-.087.212-.157.376-.154.228.005.509.06.376.331-.112.228-.236.441-.478.549-.117.052-.588.068-.405.331.117.168.455-.076.647.074.463.361.156 1.243.265 1.731.217.972 1.105 2.667-.041 3.355-1.081.649-2.582-.524-3.552-.952-1.002-.442-2.404-1.296-3.155-2.148-.981-1.113-1.072-2.95-1.144-4.351-.042-.822-.16-1.175-.671-1.794-.434-.526-.947-1.574-1.69-1.676a.687.687 0 0 0-.336.038c-.368.137-.992 1.095-1.179 1.448-.368.692-.45 1.782-.552 2.564-.097.745-.251 1.585-.783 2.093-.199.19-.45.335-.773.409-.419.096-1.029-.015-1.354-.298-.496-.431-1.195-1.492-1.399-2.106-.109-.329-.254-.502-.443-.781-.438-.649-.775-1.629-.7-2.421z" fill="#4C6E63" data-color="4"></path>
        <path d="M104.195 101.625c-.37 3.567-.632 6.741-1.002 10.308-.053.514.752.509.805 0l.882-8.506c.29 1.07.58 2.139.874 3.207a293.12 293.12 0 0 0 1.003 3.589c.148.514.239 1.27.583 1.702.322.405.888-.166.569-.567.089.111.069.115.014-.05-.043-.129-.083-.259-.123-.389a74.468 74.468 0 0 1-.358-1.224c-.34-1.193-.67-2.389-.998-3.585l-1.231-4.497-1.018.012z" fill="#F3EBD7" data-color="1"></path>
        <path d="M130.848 59.529c.137-.027.303.025.426-.004.298-.071.515.158.515.158.596-.01 1.175-.017 1.884-.03.056-.001.114-.669.17-.67.342-.006.984-.17 1.332-.176.277-.005.531.805.531.805l1.948-.038.099-.338 1.781-.075.174.375c.359-.007.586-.014.586-.014l.216-2.583-.429-10.476-.818-.105-.691.074-.565-.236-2.304-.296-1.036.316-.945-.57-.296-.038-1.538-.243-.987.581-.999-.895-2.453-.388-.568.548-.317-.688-6.662-1.053-7.043-1.077-.954.437-1.109-.749-.858-.134c-4.239 1.463-7.221.638-9.009-.328-1.319-.712-1.976-1.5-1.976-1.5l-37.443-.926-1.503 15.393 1.794.083.693-.147.765.214 1.945.101.82-.258.811.333 1.964.09.999-.344.854.429 2.221.102.931-.434 1.111.527 1.599.071.951-.317 1.134.413.086-.008 1.168 18.081.727.41-.68.307.187 2.774.84.687-.738.886.093 1.554.933.896-.809 1.021.057 1.025.726 1.175-.575.878.068 1.27.647.812-.513 1.25.122 1.904.479.593-.356 1.295.092 1.428.363.692-.241 1.188.132 2.025.088.441-.03.441.224 3.145 1.817.009.726-.855 1.055.864 1.571.008.946-.597 1.145.608 1.901.01.951-.727 1.136.738 1.815.009.943-.741 1.124.752 1.933.01.966-.678 1.095.689.115.001 1.022.005 1.048-.614 1.038.625 1.924.01 1.071-.671.993.682 1.839.01.894-.788 1.153.798 1.951.01.989-.693 1.041.704 1.362.007 1.008-.649 1.078.66 1.935.01.583-.419.359-.235.47-.158-.007-1.469-.949-1.092.942-.632-.008-1.526-.926-1.068.915-1.016-.006-1.212-.702-1.042.691-1.042-.009-1.784-.814-.961.803-1.119-.007-1.288-.643-.994.632-1.074-.008-1.606-.455-1.086.445-.815-.005-1.344-.429-1.126.418-.906-.013-2.031-.205-.571-.003-.769.198-.401-.009-1.467-.22-.491-.101-.979.31-.474-.013-2.413-.046-.294.044-.401-.009-2.277-.164-.641.157-.727-.016-2.305s.21-.059.418-.096c.089-.016-.166-1.11.701-1.219.569-.072.882.962.998.962.863-.004.938-.019 1.438-.087.019-.003.385-1.421.675-1.456.274-.032 1.005 1.257 1.005 1.257 1.039-.12 1.878-.208 2.086-.208.004.003.776-.14 1.053-.194z" fill="#3B589C" data-color="7"></path>
        <path d="M100.933 48.902a1.034 1.034 0 0 1 0 1.362 1.045 1.045 0 0 1-1.838-.681c0-.576.469-1.042 1.047-1.042.316 0 .599.14.791.361z" fill="#FFFFFF" data-color="8"></path>
        <path fill="#FFFFFF" d="M97.474 49.61c0 .575-.468 1.042-1.046 1.042a1.044 1.044 0 0 1-1.046-1.042c0-.575.468-1.042 1.046-1.042.578 0 1.046.467 1.046 1.042z" data-color="8"></path>
        <path d="M100.356 53.934a1.045 1.045 0 0 1-1.047-1.042 1.044 1.044 0 0 1 1.624-.869 1.04 1.04 0 0 1 0 1.738 1.048 1.048 0 0 1-.577.173z" fill="#FFFFFF" data-color="8"></path>
        <path fill="#FFFFFF" d="M97.408 52.917c0 .575-.468 1.042-1.046 1.042a1.044 1.044 0 0 1-1.046-1.042c0-.575.468-1.042 1.046-1.042.578 0 1.046.467 1.046 1.042z" data-color="8"></path>
        <path fill="#FFFFFF" d="M93.98 49.533c0 .575-.469 1.042-1.047 1.042a1.045 1.045 0 0 1-1.047-1.042c0-.575.469-1.042 1.047-1.042s1.047.467 1.047 1.042z" data-color="8"></path>
        <path fill="#FFFFFF" d="M90.266 49.56c0 .575-.469 1.042-1.047 1.042a1.045 1.045 0 0 1-1.047-1.042c0-.575.469-1.042 1.047-1.042s1.047.467 1.047 1.042z" data-color="8"></path>
        <path fill="#FFFFFF" d="M94.194 52.842c0 .575-.469 1.042-1.047 1.042a1.045 1.045 0 0 1-1.047-1.042c0-.575.469-1.042 1.047-1.042s1.047.467 1.047 1.042z" data-color="8"></path>
        <path fill="#FFFFFF" d="M90.2 52.867c0 .575-.469 1.042-1.047 1.042a1.045 1.045 0 0 1-1.047-1.042c0-.575.469-1.042 1.047-1.042s1.047.467 1.047 1.042z" data-color="8"></path>
        <path fill="#FFFFFF" d="M86.093 49.571c0 .575-.468 1.042-1.046 1.042a1.044 1.044 0 0 1-1.046-1.042c0-.575.468-1.042 1.046-1.042.578 0 1.046.467 1.046 1.042z" data-color="8"></path>
        <path fill="#FFFFFF" d="M82.379 49.598c0 .575-.468 1.042-1.046 1.042a1.044 1.044 0 0 1-1.046-1.042c0-.575.468-1.042 1.046-1.042.578 0 1.046.467 1.046 1.042z" data-color="8"></path>
        <path fill="#FFFFFF" d="M86.307 52.88c0 .575-.468 1.042-1.046 1.042a1.044 1.044 0 0 1-1.046-1.042c0-.575.468-1.042 1.046-1.042.578 0 1.046.467 1.046 1.042z" data-color="8"></path>
        <path fill="#FFFFFF" d="M82.314 52.905c0 .575-.469 1.042-1.047 1.042a1.045 1.045 0 0 1-1.047-1.042c0-.575.469-1.042 1.047-1.042s1.047.467 1.047 1.042z" data-color="8"></path>
        <path fill="#FFFFFF" d="M78.597 49.089c0 .575-.469 1.042-1.047 1.042a1.045 1.045 0 0 1-1.047-1.042c0-.575.469-1.042 1.047-1.042s1.047.467 1.047 1.042z" data-color="8"></path>
        <path fill="#FFFFFF" d="M74.883 49.116c0 .575-.469 1.042-1.047 1.042a1.045 1.045 0 0 1-1.047-1.042c0-.575.469-1.042 1.047-1.042s1.047.467 1.047 1.042z" data-color="8"></path>
        <path fill="#FFFFFF" d="M78.81 52.398c0 .575-.468 1.042-1.046 1.042a1.044 1.044 0 0 1-1.046-1.042c0-.575.468-1.042 1.046-1.042.578 0 1.046.467 1.046 1.042z" data-color="8"></path>
        <path fill="#FFFFFF" d="M74.816 52.423c0 .575-.468 1.042-1.046 1.042a1.044 1.044 0 0 1-1.046-1.042c0-.575.468-1.042 1.046-1.042.578 0 1.046.467 1.046 1.042z" data-color="8"></path>
        <path fill="#FFFFFF" d="M70.711 49.127c0 .575-.469 1.042-1.047 1.042a1.045 1.045 0 0 1-1.047-1.042c0-.575.469-1.042 1.047-1.042s1.047.467 1.047 1.042z" data-color="8"></path>
        <path fill="#FFFFFF" d="M66.995 49.154c0 .575-.468 1.042-1.046 1.042a1.044 1.044 0 0 1-1.046-1.042c0-.575.468-1.042 1.046-1.042.578 0 1.046.467 1.046 1.042z" data-color="8"></path>
        <path fill="#FFFFFF" d="M70.924 52.436c0 .575-.468 1.042-1.046 1.042a1.044 1.044 0 0 1-1.046-1.042c0-.575.468-1.042 1.046-1.042.578 0 1.046.467 1.046 1.042z" data-color="8"></path>
        <path fill="#FFFFFF" d="M66.93 52.461c0 .575-.468 1.042-1.046 1.042a1.044 1.044 0 0 1-1.046-1.042c0-.575.468-1.042 1.046-1.042.578 0 1.046.467 1.046 1.042z" data-color="8"></path>
        <path fill="#FFFFFF" d="M63.501 49.077c0 .575-.468 1.042-1.046 1.042a1.044 1.044 0 0 1-1.046-1.042c0-.575.468-1.042 1.046-1.042.578 0 1.046.467 1.046 1.042z" data-color="8"></path>
        <path fill="#FFFFFF" d="M63.715 52.386c0 .575-.468 1.042-1.046 1.042a1.044 1.044 0 0 1-1.046-1.042c0-.575.468-1.042 1.046-1.042.578 0 1.046.467 1.046 1.042z" data-color="8"></path>
        <path fill="#FFFFFF" d="M97.582 42.382c0 .575-.468 1.042-1.046 1.042a1.044 1.044 0 0 1-1.046-1.042c0-.575.468-1.042 1.046-1.042.578 0 1.046.467 1.046 1.042z" data-color="8"></path>
        <path fill="#FFFFFF" d="M97.517 45.689c0 .575-.468 1.042-1.046 1.042a1.044 1.044 0 0 1-1.046-1.042c0-.575.468-1.042 1.046-1.042.578 0 1.046.467 1.046 1.042z" data-color="8"></path>
        <path fill="#FFFFFF" d="M94.088 42.305c0 .575-.468 1.042-1.046 1.042a1.044 1.044 0 0 1-1.046-1.042c0-.575.468-1.042 1.046-1.042.578 0 1.046.467 1.046 1.042z" data-color="8"></path>
        <path fill="#FFFFFF" d="M90.375 42.332c0 .575-.469 1.042-1.047 1.042a1.045 1.045 0 0 1-1.047-1.042c0-.575.469-1.042 1.047-1.042s1.047.467 1.047 1.042z" data-color="8"></path>
        <path fill="#FFFFFF" d="M94.303 45.614c0 .575-.469 1.042-1.047 1.042a1.045 1.045 0 0 1-1.047-1.042c0-.575.469-1.042 1.047-1.042s1.047.467 1.047 1.042z" data-color="8"></path>
        <path fill="#FFFFFF" d="M90.309 45.639c0 .575-.469 1.042-1.047 1.042a1.045 1.045 0 0 1-1.047-1.042c0-.575.469-1.042 1.047-1.042s1.047.467 1.047 1.042z" data-color="8"></path>
        <path fill="#FFFFFF" d="M86.202 42.343c0 .575-.468 1.042-1.046 1.042a1.044 1.044 0 0 1-1.046-1.042c0-.575.468-1.042 1.046-1.042.578 0 1.046.467 1.046 1.042z" data-color="8"></path>
        <path fill="#FFFFFF" d="M82.488 42.37c0 .575-.468 1.042-1.046 1.042a1.044 1.044 0 0 1-1.046-1.042c0-.575.468-1.042 1.046-1.042.578 0 1.046.467 1.046 1.042z" data-color="8"></path>
        <path fill="#FFFFFF" d="M86.417 45.652c0 .575-.469 1.042-1.047 1.042a1.045 1.045 0 0 1-1.047-1.042c0-.575.469-1.042 1.047-1.042s1.047.467 1.047 1.042z" data-color="8"></path>
        <path fill="#FFFFFF" d="M82.422 45.677c0 .575-.468 1.042-1.046 1.042a1.044 1.044 0 0 1-1.046-1.042c0-.575.468-1.042 1.046-1.042.578 0 1.046.467 1.046 1.042z" data-color="8"></path>
        <path fill="#FFFFFF" d="M78.705 41.861c0 .575-.468 1.042-1.046 1.042a1.044 1.044 0 0 1-1.046-1.042c0-.575.468-1.042 1.046-1.042.578 0 1.046.467 1.046 1.042z" data-color="8"></path>
        <path fill="#FFFFFF" d="M74.991 41.888c0 .575-.468 1.042-1.046 1.042a1.044 1.044 0 0 1-1.046-1.042c0-.575.468-1.042 1.046-1.042.578 0 1.046.467 1.046 1.042z" data-color="8"></path>
        <path fill="#FFFFFF" d="M78.919 45.17c0 .575-.468 1.042-1.046 1.042a1.044 1.044 0 0 1-1.046-1.042c0-.575.468-1.042 1.046-1.042.578 0 1.046.467 1.046 1.042z" data-color="8"></path>
        <path fill="#FFFFFF" d="M74.925 45.195c0 .575-.468 1.042-1.046 1.042a1.044 1.044 0 0 1-1.046-1.042c0-.575.468-1.042 1.046-1.042.578 0 1.046.467 1.046 1.042z" data-color="8"></path>
        <path fill="#FFFFFF" d="M70.819 41.899c0 .575-.468 1.042-1.046 1.042a1.044 1.044 0 0 1-1.046-1.042c0-.575.468-1.042 1.046-1.042.578 0 1.046.467 1.046 1.042z" data-color="8"></path>
        <path fill="#FFFFFF" d="M67.104 41.926c0 .575-.468 1.042-1.046 1.042a1.044 1.044 0 0 1-1.046-1.042c0-.575.468-1.042 1.046-1.042.578 0 1.046.467 1.046 1.042z" data-color="8"></path>
        <path fill="#FFFFFF" d="M71.033 45.208c0 .575-.468 1.042-1.046 1.042a1.044 1.044 0 0 1-1.046-1.042c0-.575.468-1.042 1.046-1.042.578 0 1.046.467 1.046 1.042z" data-color="8"></path>
        <path fill="#FFFFFF" d="M67.039 45.233c0 .575-.468 1.042-1.046 1.042a1.044 1.044 0 0 1-1.046-1.042c0-.575.468-1.042 1.046-1.042.578 0 1.046.467 1.046 1.042z" data-color="8"></path>
        <path fill="#FFFFFF" d="M63.61 41.849c0 .575-.468 1.042-1.046 1.042a1.044 1.044 0 0 1-1.046-1.042c0-.575.468-1.042 1.046-1.042.578 0 1.046.467 1.046 1.042z" data-color="8"></path>
        <path fill="#FFFFFF" d="M63.825 45.158c0 .575-.469 1.042-1.047 1.042a1.045 1.045 0 0 1-1.047-1.042c0-.575.469-1.042 1.047-1.042s1.047.467 1.047 1.042z" data-color="8"></path>
        <path d="M100.933 62.877a1.03 1.03 0 0 1 0 1.206 1.046 1.046 0 0 1-1.899-.602c0-.576.469-1.042 1.046-1.042.352-.001.663.173.853.438z" fill="#FFFFFF" data-color="8"></path>
        <path fill="#FFFFFF" d="M97.413 63.507c0 .575-.469 1.042-1.047 1.042a1.045 1.045 0 0 1-1.047-1.042c0-.575.469-1.042 1.047-1.042s1.047.467 1.047 1.042z" data-color="8"></path>
        <path d="M100.294 67.831a1.045 1.045 0 0 1-1.047-1.042 1.045 1.045 0 0 1 1.686-.824 1.037 1.037 0 0 1 0 1.648 1.045 1.045 0 0 1-.639.218z" fill="#FFFFFF" data-color="8"></path>
        <path fill="#FFFFFF" d="M97.347 66.814c0 .575-.469 1.042-1.047 1.042a1.045 1.045 0 0 1-1.047-1.042c0-.575.469-1.042 1.047-1.042s1.047.467 1.047 1.042z" data-color="8"></path>
        <path fill="#FFFFFF" d="M93.918 63.43c0 .575-.469 1.042-1.047 1.042a1.045 1.045 0 0 1-1.047-1.042c0-.575.469-1.042 1.047-1.042s1.047.467 1.047 1.042z" data-color="8"></path>
        <path fill="#FFFFFF" d="M90.204 63.458c0 .575-.469 1.042-1.047 1.042a1.045 1.045 0 0 1-1.047-1.042c0-.575.469-1.042 1.047-1.042s1.047.467 1.047 1.042z" data-color="8"></path>
        <path fill="#FFFFFF" d="M94.131 66.739c0 .575-.468 1.042-1.046 1.042a1.044 1.044 0 0 1-1.046-1.042c0-.575.468-1.042 1.046-1.042.578 0 1.046.467 1.046 1.042z" data-color="8"></path>
        <path fill="#FFFFFF" d="M90.139 66.765c0 .575-.469 1.042-1.047 1.042a1.045 1.045 0 0 1-1.047-1.042c0-.575.469-1.042 1.047-1.042s1.047.467 1.047 1.042z" data-color="8"></path>
        <path fill="#FFFFFF" d="M86.032 63.468c0 .575-.469 1.042-1.047 1.042a1.045 1.045 0 0 1-1.047-1.042c0-.575.469-1.042 1.047-1.042s1.047.467 1.047 1.042z" data-color="8"></path>
        <path fill="#FFFFFF" d="M82.317 63.496c0 .575-.468 1.042-1.046 1.042a1.044 1.044 0 0 1-1.046-1.042c0-.575.468-1.042 1.046-1.042.578 0 1.046.467 1.046 1.042z" data-color="8"></path>
        <path fill="#FFFFFF" d="M86.245 66.777c0 .575-.468 1.042-1.046 1.042a1.044 1.044 0 0 1-1.046-1.042c0-.575.468-1.042 1.046-1.042.578 0 1.046.467 1.046 1.042z" data-color="8"></path>
        <path fill="#FFFFFF" d="M82.252 66.803c0 .575-.469 1.042-1.047 1.042a1.045 1.045 0 0 1-1.047-1.042c0-.575.469-1.042 1.047-1.042s1.047.467 1.047 1.042z" data-color="8"></path>
        <path d="M100.189 57.294a1.044 1.044 0 0 1-1.046-1.042c0-.576.469-1.042 1.046-1.042.291 0 .554.119.744.309a1.036 1.036 0 0 1 0 1.466c-.19.191-.453.309-.744.309z" fill="#FFFFFF" data-color="8"></path>
        <path fill="#FFFFFF" d="M97.521 56.279c0 .575-.468 1.042-1.046 1.042a1.044 1.044 0 0 1-1.046-1.042c0-.575.468-1.042 1.046-1.042.578 0 1.046.467 1.046 1.042z" data-color="8"></path>
        <path fill="#FFFFFF" d="M97.456 59.586c0 .575-.469 1.042-1.047 1.042a1.045 1.045 0 0 1-1.047-1.042c0-.575.469-1.042 1.047-1.042s1.047.467 1.047 1.042z" data-color="8"></path>
        <path fill="#FFFFFF" d="M94.027 56.202c0 .575-.469 1.042-1.047 1.042a1.045 1.045 0 0 1-1.047-1.042c0-.575.469-1.042 1.047-1.042s1.047.467 1.047 1.042z" data-color="8"></path>
        <path fill="#FFFFFF" d="M90.313 56.229c0 .575-.469 1.042-1.047 1.042a1.045 1.045 0 0 1-1.047-1.042c0-.575.469-1.042 1.047-1.042s1.047.467 1.047 1.042z" data-color="8"></path>
        <path fill="#FFFFFF" d="M94.241 59.511c0 .575-.469 1.042-1.047 1.042a1.045 1.045 0 0 1-1.047-1.042c0-.575.469-1.042 1.047-1.042s1.047.467 1.047 1.042z" data-color="8"></path>
        <path fill="#FFFFFF" d="M90.248 59.536c0 .575-.469 1.042-1.047 1.042a1.045 1.045 0 0 1-1.047-1.042c0-.575.469-1.042 1.047-1.042s1.047.467 1.047 1.042z" data-color="8"></path>
        <path fill="#FFFFFF" d="M86.14 56.24c0 .575-.468 1.042-1.046 1.042a1.044 1.044 0 0 1-1.046-1.042c0-.575.468-1.042 1.046-1.042.578 0 1.046.467 1.046 1.042z" data-color="8"></path>
        <path fill="#FFFFFF" d="M82.426 56.267c0 .575-.468 1.042-1.046 1.042a1.044 1.044 0 0 1-1.046-1.042c0-.575.468-1.042 1.046-1.042.578 0 1.046.467 1.046 1.042z" data-color="8"></path>
        <path fill="#FFFFFF" d="M86.355 59.549c0 .575-.469 1.042-1.047 1.042a1.045 1.045 0 0 1-1.047-1.042c0-.575.469-1.042 1.047-1.042s1.047.467 1.047 1.042z" data-color="8"></path>
        <path fill="#FFFFFF" d="M82.36 59.574c0 .575-.468 1.042-1.046 1.042a1.044 1.044 0 0 1-1.046-1.042c0-.575.468-1.042 1.046-1.042.578 0 1.046.467 1.046 1.042z" data-color="8"></path>
        <path d="M77.554 54.427c.572 0 1.035.456 1.045 1.023l-2.085-.095a1.045 1.045 0 0 1 1.04-.928z" fill="#FFFFFF" data-color="8"></path>
        <path d="M73.883 54.43c.503 0 .931.383 1.032.854l-2.041-.093c.132-.425.539-.761 1.009-.761z" fill="#FFFFFF" data-color="8"></path>
        <path d="M69.704 54.484c.427 0 .786.239.949.604l-1.853-.085c.178-.319.511-.519.904-.519z" fill="#FFFFFF" data-color="8"></path>
        <path d="M66.836 54.912l-1.631-.075c.191-.21.478-.353.785-.353.342 0 .655.175.846.428z" fill="#FFFFFF" data-color="8"></path>
        <path d="M63.259 54.736l-1.458-.067a1.043 1.043 0 0 1 1.458.067z" fill="#FFFFFF" data-color="8"></path>
        <path fill="#FFFFFF" d="M100.644 77.75c0 .575-.469 1.042-1.047 1.042a1.045 1.045 0 0 1-1.047-1.042c0-.575.469-1.042 1.047-1.042s1.047.467 1.047 1.042z" data-color="8"></path>
        <path fill="#FFFFFF" d="M96.93 77.778c0 .575-.469 1.042-1.047 1.042a1.045 1.045 0 0 1-1.047-1.042c0-.575.469-1.042 1.047-1.042s1.047.467 1.047 1.042z" data-color="8"></path>
        <path fill="#FFFFFF" d="M100.858 81.059c0 .575-.469 1.042-1.047 1.042a1.045 1.045 0 0 1-1.047-1.042c0-.575.469-1.042 1.047-1.042s1.047.467 1.047 1.042z" data-color="8"></path>
        <path fill="#FFFFFF" d="M96.864 81.085c0 .575-.469 1.042-1.047 1.042a1.045 1.045 0 0 1-1.047-1.042c0-.575.469-1.042 1.047-1.042s1.047.467 1.047 1.042z" data-color="8"></path>
        <path fill="#FFFFFF" d="M93.434 77.701c0 .575-.468 1.042-1.046 1.042a1.044 1.044 0 0 1-1.046-1.042c0-.575.468-1.042 1.046-1.042.578 0 1.046.467 1.046 1.042z" data-color="8"></path>
        <path fill="#FFFFFF" d="M89.721 77.728c0 .575-.469 1.042-1.047 1.042a1.045 1.045 0 0 1-1.047-1.042c0-.575.469-1.042 1.047-1.042s1.047.467 1.047 1.042z" data-color="8"></path>
        <path fill="#FFFFFF" d="M93.648 81.01c0 .575-.468 1.042-1.046 1.042a1.044 1.044 0 0 1-1.046-1.042c0-.575.468-1.042 1.046-1.042.578 0 1.046.467 1.046 1.042z" data-color="8"></path>
        <path fill="#FFFFFF" d="M89.655 81.035c0 .575-.468 1.042-1.046 1.042a1.044 1.044 0 0 1-1.046-1.042c0-.575.468-1.042 1.046-1.042.578 0 1.046.467 1.046 1.042z" data-color="8"></path>
        <path fill="#FFFFFF" d="M85.549 77.739c0 .575-.469 1.042-1.047 1.042a1.045 1.045 0 0 1-1.047-1.042c0-.575.469-1.042 1.047-1.042s1.047.467 1.047 1.042z" data-color="8"></path>
        <path d="M81.865 77.757a1.044 1.044 0 0 1-1.678.83l-.102-1.572a1.047 1.047 0 0 1 1.78.742z" fill="#FFFFFF" data-color="8"></path>
        <path fill="#FFFFFF" d="M85.762 81.048c0 .575-.468 1.042-1.046 1.042a1.044 1.044 0 0 1-1.046-1.042c0-.575.468-1.042 1.046-1.042.578 0 1.046.467 1.046 1.042z" data-color="8"></path>
        <path d="M81.794 81.073a1.044 1.044 0 0 1-1.388.984l-.125-1.917a1.046 1.046 0 0 1 1.513.933z" fill="#FFFFFF" data-color="8"></path>
        <path fill="#FFFFFF" d="M100.753 70.522c0 .575-.469 1.042-1.047 1.042a1.045 1.045 0 0 1-1.047-1.042c0-.575.469-1.042 1.047-1.042s1.047.467 1.047 1.042z" data-color="8"></path>
        <path fill="#FFFFFF" d="M97.039 70.549c0 .575-.469 1.042-1.047 1.042a1.045 1.045 0 0 1-1.047-1.042c0-.575.469-1.042 1.047-1.042s1.047.467 1.047 1.042z" data-color="8"></path>
        <path d="M99.92 74.873a1.044 1.044 0 0 1-1.046-1.042 1.047 1.047 0 1 1 2.059-.258 1.003 1.003 0 0 1 0 .516 1.045 1.045 0 0 1-1.013.784z" fill="#FFFFFF" data-color="8"></path>
        <path fill="#FFFFFF" d="M96.972 73.856c0 .575-.468 1.042-1.046 1.042a1.044 1.044 0 0 1-1.046-1.042c0-.575.468-1.042 1.046-1.042.578 0 1.046.467 1.046 1.042z" data-color="8"></path>
        <path fill="#FFFFFF" d="M93.544 70.472c0 .575-.469 1.042-1.047 1.042a1.045 1.045 0 0 1-1.047-1.042c0-.575.469-1.042 1.047-1.042s1.047.467 1.047 1.042z" data-color="8"></path>
        <path fill="#FFFFFF" d="M89.83 70.5c0 .575-.469 1.042-1.047 1.042a1.045 1.045 0 0 1-1.047-1.042c0-.575.469-1.042 1.047-1.042s1.047.467 1.047 1.042z" data-color="8"></path>
        <path fill="#FFFFFF" d="M93.758 73.781c0 .575-.469 1.042-1.047 1.042a1.045 1.045 0 0 1-1.047-1.042c0-.575.469-1.042 1.047-1.042s1.047.467 1.047 1.042z" data-color="8"></path>
        <path fill="#FFFFFF" d="M89.765 73.807c0 .575-.469 1.042-1.047 1.042a1.045 1.045 0 0 1-1.047-1.042c0-.575.469-1.042 1.047-1.042s1.047.467 1.047 1.042z" data-color="8"></path>
        <path fill="#FFFFFF" d="M85.657 70.51c0 .575-.468 1.042-1.046 1.042a1.044 1.044 0 0 1-1.046-1.042c0-.575.468-1.042 1.046-1.042.578 0 1.046.467 1.046 1.042z" data-color="8"></path>
        <path fill="#FFFFFF" d="M81.943 70.538c0 .575-.468 1.042-1.046 1.042a1.044 1.044 0 0 1-1.046-1.042c0-.575.468-1.042 1.046-1.042.578 0 1.046.467 1.046 1.042z" data-color="8"></path>
        <path fill="#FFFFFF" d="M85.872 73.819c0 .575-.469 1.042-1.047 1.042a1.045 1.045 0 0 1-1.047-1.042c0-.575.469-1.042 1.047-1.042s1.047.467 1.047 1.042z" data-color="8"></path>
        <path d="M79.895 74.251c.163.365.51.636.937.636.578 0 1.047-.467 1.047-1.042 0-.576-.469-1.042-1.047-1.042-.475 0-.856.3-.983.732l.046.716z" fill="#FFFFFF" data-color="8"></path>
        <path fill="#FFFFFF" d="M100.464 91.87c0 .575-.468 1.042-1.046 1.042a1.044 1.044 0 0 1-1.046-1.042c0-.575.468-1.042 1.046-1.042.578 0 1.046.467 1.046 1.042z" data-color="8"></path>
        <path fill="#FFFFFF" d="M100.399 95.177c0 .575-.469 1.042-1.047 1.042a1.045 1.045 0 0 1-1.047-1.042c0-.575.469-1.042 1.047-1.042s1.047.467 1.047 1.042z" data-color="8"></path>
        <path fill="#FFFFFF" d="M96.97 91.793c0 .575-.469 1.042-1.047 1.042a1.045 1.045 0 0 1-1.047-1.042c0-.575.469-1.042 1.047-1.042s1.047.467 1.047 1.042z" data-color="8"></path>
        <path fill="#FFFFFF" d="M93.256 91.82c0 .575-.469 1.042-1.047 1.042a1.045 1.045 0 0 1-1.047-1.042c0-.575.469-1.042 1.047-1.042s1.047.467 1.047 1.042z" data-color="8"></path>
        <path fill="#FFFFFF" d="M97.183 95.102c0 .575-.468 1.042-1.046 1.042a1.044 1.044 0 0 1-1.046-1.042c0-.575.468-1.042 1.046-1.042.578 0 1.046.467 1.046 1.042z" data-color="8"></path>
        <path fill="#FFFFFF" d="M93.191 95.127c0 .575-.469 1.042-1.047 1.042a1.045 1.045 0 0 1-1.047-1.042c0-.575.469-1.042 1.047-1.042s1.047.467 1.047 1.042z" data-color="8"></path>
        <path fill="#FFFFFF" d="M89.083 91.831c0 .575-.468 1.042-1.046 1.042a1.044 1.044 0 0 1-1.046-1.042c0-.575.468-1.042 1.046-1.042.578 0 1.046.467 1.046 1.042z" data-color="8"></path>
        <path fill="#FFFFFF" d="M85.369 91.859c0 .575-.468 1.042-1.046 1.042a1.044 1.044 0 0 1-1.046-1.042c0-.575.468-1.042 1.046-1.042.578 0 1.046.467 1.046 1.042z" data-color="8"></path>
        <path fill="#FFFFFF" d="M89.298 95.14c0 .575-.469 1.042-1.047 1.042a1.045 1.045 0 0 1-1.047-1.042c0-.575.469-1.042 1.047-1.042s1.047.467 1.047 1.042z" data-color="8"></path>
        <path fill="#FFFFFF" d="M85.303 95.165c0 .575-.468 1.042-1.046 1.042a1.044 1.044 0 0 1-1.046-1.042c0-.575.468-1.042 1.046-1.042.578 0 1.046.467 1.046 1.042z" data-color="8"></path>
        <path d="M81.611 91.349c0 .393-.227.734-.549.912l-.123-1.888c.388.152.672.535.672.976z" fill="#FFFFFF" data-color="8"></path>
        <path d="M81.816 94.658c0 .392-.218.733-.539.911l-.122-1.88c.386.153.661.529.661.969z" fill="#FFFFFF" data-color="8"></path>
        <path fill="#FFFFFF" d="M100.573 84.642c0 .575-.468 1.042-1.046 1.042a1.044 1.044 0 0 1-1.046-1.042c0-.575.468-1.042 1.046-1.042.578 0 1.046.467 1.046 1.042z" data-color="8"></path>
        <path fill="#FFFFFF" d="M100.508 87.949c0 .575-.469 1.042-1.047 1.042a1.045 1.045 0 0 1-1.047-1.042c0-.575.469-1.042 1.047-1.042s1.047.467 1.047 1.042z" data-color="8"></path>
        <path fill="#FFFFFF" d="M97.079 84.565c0 .575-.469 1.042-1.047 1.042a1.045 1.045 0 0 1-1.047-1.042c0-.575.469-1.042 1.047-1.042s1.047.467 1.047 1.042z" data-color="8"></path>
        <path fill="#FFFFFF" d="M93.365 84.592c0 .575-.469 1.042-1.047 1.042a1.045 1.045 0 0 1-1.047-1.042c0-.575.469-1.042 1.047-1.042s1.047.467 1.047 1.042z" data-color="8"></path>
        <path fill="#FFFFFF" d="M97.293 87.874c0 .575-.469 1.042-1.047 1.042a1.045 1.045 0 0 1-1.047-1.042c0-.575.469-1.042 1.047-1.042s1.047.467 1.047 1.042z" data-color="8"></path>
        <path fill="#FFFFFF" d="M93.3 87.899c0 .575-.469 1.042-1.047 1.042a1.045 1.045 0 0 1-1.047-1.042c0-.575.469-1.042 1.047-1.042s1.047.467 1.047 1.042z" data-color="8"></path>
        <path fill="#FFFFFF" d="M89.193 84.603c0 .575-.469 1.042-1.047 1.042a1.045 1.045 0 0 1-1.047-1.042c0-.575.469-1.042 1.047-1.042s1.047.467 1.047 1.042z" data-color="8"></path>
        <path fill="#FFFFFF" d="M85.479 84.63c0 .575-.469 1.042-1.047 1.042a1.045 1.045 0 0 1-1.047-1.042c0-.575.469-1.042 1.047-1.042s1.047.467 1.047 1.042z" data-color="8"></path>
        <path fill="#FFFFFF" d="M89.407 87.912c0 .575-.469 1.042-1.047 1.042a1.045 1.045 0 0 1-1.047-1.042c0-.575.469-1.042 1.047-1.042s1.047.467 1.047 1.042z" data-color="8"></path>
        <path fill="#FFFFFF" d="M85.413 87.937c0 .575-.469 1.042-1.047 1.042a1.045 1.045 0 0 1-1.047-1.042c0-.575.469-1.042 1.047-1.042s1.047.467 1.047 1.042z" data-color="8"></path>
        <path d="M81.709 84.106c0 .576-.469 1.042-1.047 1.042-.022 0-.044-.002-.065-.003l-.134-2.062a1.044 1.044 0 0 1 1.246 1.023z" fill="#FFFFFF" data-color="8"></path>
        <path d="M81.927 87.43c0 .576-.469 1.042-1.047 1.042-.022 0-.043-.002-.064-.003l-.134-2.062a1.044 1.044 0 0 1 1.245 1.023z" fill="#FFFFFF" data-color="8"></path>
        <path fill="#FFFFFF" d="M100.621 98.515c0 .575-.469 1.042-1.047 1.042a1.045 1.045 0 0 1-1.047-1.042c0-.575.469-1.042 1.047-1.042s1.047.467 1.047 1.042z" data-color="8"></path>
        <path fill="#FFFFFF" d="M96.907 98.542c0 .575-.469 1.042-1.047 1.042a1.045 1.045 0 0 1-1.047-1.042c0-.575.469-1.042 1.047-1.042s1.047.467 1.047 1.042z" data-color="8"></path>
        <path d="M99.788 100.782a1.044 1.044 0 0 1 1.027 1.239l-2.056-.011a1.045 1.045 0 0 1 1.029-1.228z" fill="#FFFFFF" data-color="8"></path>
        <path d="M95.795 100.807A1.044 1.044 0 0 1 96.829 102l-2.07-.011a1.044 1.044 0 0 1 1.036-1.182z" fill="#FFFFFF" data-color="8"></path>
        <path fill="#FFFFFF" d="M92.734 98.553c0 .575-.468 1.042-1.046 1.042a1.044 1.044 0 0 1-1.046-1.042c0-.575.468-1.042 1.046-1.042.578 0 1.046.467 1.046 1.042z" data-color="8"></path>
        <path fill="#FFFFFF" d="M89.021 98.58c0 .575-.469 1.042-1.047 1.042a1.045 1.045 0 0 1-1.047-1.042c0-.575.469-1.042 1.047-1.042s1.047.467 1.047 1.042z" data-color="8"></path>
        <path d="M91.902 100.82a1.044 1.044 0 0 1 1.039 1.159l-2.081-.011a1.045 1.045 0 0 1 1.042-1.148z" fill="#FFFFFF" data-color="8"></path>
        <path d="M87.908 100.845a1.044 1.044 0 0 1 1.042 1.114l-2.086-.011c-.001-.02-.003-.04-.003-.061a1.045 1.045 0 0 1 1.047-1.042z" fill="#FFFFFF" data-color="8"></path>
        <path fill="#FFFFFF" d="M85.237 98.07c0 .575-.468 1.042-1.046 1.042a1.044 1.044 0 0 1-1.046-1.042c0-.575.468-1.042 1.046-1.042.578 0 1.046.467 1.046 1.042z" data-color="8"></path>
        <path d="M81.466 98.477l-.057-.883a1.032 1.032 0 0 1 .057.883z" fill="#FFFFFF" data-color="8"></path>
        <path d="M84.405 100.337c.578 0 1.047.467 1.047 1.042 0 .206-.061.398-.165.56l-1.769-.009a1.043 1.043 0 0 1 .887-1.593z" fill="#FFFFFF" data-color="8"></path>
        <path fill="#FFFFFF" d="M139.318 49.338c0 .575-.469 1.042-1.047 1.042a1.045 1.045 0 0 1-1.047-1.042c0-.575.469-1.042 1.047-1.042s1.047.467 1.047 1.042z" data-color="8"></path>
        <path fill="#FFFFFF" d="M135.604 49.365c0 .575-.469 1.042-1.047 1.042a1.045 1.045 0 0 1-1.047-1.042c0-.575.469-1.042 1.047-1.042s1.047.467 1.047 1.042z" data-color="8"></path>
        <path fill="#FFFFFF" d="M139.532 52.647c0 .575-.469 1.042-1.047 1.042a1.045 1.045 0 0 1-1.047-1.042c0-.575.469-1.042 1.047-1.042s1.047.467 1.047 1.042z" data-color="8"></path>
        <path fill="#FFFFFF" d="M135.538 52.672c0 .575-.469 1.042-1.047 1.042a1.045 1.045 0 0 1-1.047-1.042c0-.575.469-1.042 1.047-1.042s1.047.467 1.047 1.042z" data-color="8"></path>
        <path fill="#FFFFFF" d="M131.431 49.376c0 .575-.468 1.042-1.046 1.042a1.044 1.044 0 0 1-1.046-1.042c0-.575.468-1.042 1.046-1.042.578 0 1.046.467 1.046 1.042z" data-color="8"></path>
        <path fill="#FFFFFF" d="M127.718 49.403c0 .575-.469 1.042-1.047 1.042a1.045 1.045 0 0 1-1.047-1.042c0-.575.469-1.042 1.047-1.042s1.047.467 1.047 1.042z" data-color="8"></path>
        <path fill="#FFFFFF" d="M131.646 52.685c0 .575-.469 1.042-1.047 1.042a1.045 1.045 0 0 1-1.047-1.042c0-.575.469-1.042 1.047-1.042s1.047.467 1.047 1.042z" data-color="8"></path>
        <path fill="#FFFFFF" d="M127.652 52.71c0 .575-.469 1.042-1.047 1.042a1.045 1.045 0 0 1-1.047-1.042c0-.575.469-1.042 1.047-1.042s1.047.467 1.047 1.042z" data-color="8"></path>
        <path fill="#FFFFFF" d="M124.222 49.326c0 .575-.468 1.042-1.046 1.042a1.044 1.044 0 0 1-1.046-1.042c0-.575.468-1.042 1.046-1.042.578 0 1.046.467 1.046 1.042z" data-color="8"></path>
        <path fill="#FFFFFF" d="M120.66 49.688c0 .575-.469 1.042-1.047 1.042a1.045 1.045 0 0 1-1.047-1.042c0-.575.469-1.042 1.047-1.042s1.047.467 1.047 1.042z" data-color="8"></path>
        <path fill="#FFFFFF" d="M124.436 52.635c0 .575-.468 1.042-1.046 1.042a1.044 1.044 0 0 1-1.046-1.042c0-.575.468-1.042 1.046-1.042.578 0 1.046.467 1.046 1.042z" data-color="8"></path>
        <path fill="#FFFFFF" d="M120.594 52.995c0 .575-.469 1.042-1.047 1.042a1.045 1.045 0 0 1-1.047-1.042c0-.575.469-1.042 1.047-1.042s1.047.467 1.047 1.042z" data-color="8"></path>
        <path fill="#FFFFFF" d="M116.488 49.699c0 .575-.469 1.042-1.047 1.042a1.045 1.045 0 0 1-1.047-1.042c0-.575.469-1.042 1.047-1.042s1.047.467 1.047 1.042z" data-color="8"></path>
        <path fill="#FFFFFF" d="M112.774 49.726c0 .575-.469 1.042-1.047 1.042a1.045 1.045 0 0 1-1.047-1.042c0-.575.469-1.042 1.047-1.042s1.047.467 1.047 1.042z" data-color="8"></path>
        <path fill="#FFFFFF" d="M116.702 53.008c0 .575-.469 1.042-1.047 1.042a1.045 1.045 0 0 1-1.047-1.042c0-.575.469-1.042 1.047-1.042s1.047.467 1.047 1.042z" data-color="8"></path>
        <path fill="#FFFFFF" d="M112.708 53.033c0 .575-.469 1.042-1.047 1.042a1.045 1.045 0 0 1-1.047-1.042c0-.575.469-1.042 1.047-1.042s1.047.467 1.047 1.042z" data-color="8"></path>
        <path fill="#FFFFFF" d="M109.075 49.545c0 .575-.469 1.042-1.047 1.042a1.045 1.045 0 0 1-1.047-1.042c0-.575.469-1.042 1.047-1.042s1.047.467 1.047 1.042z" data-color="8"></path>
        <path fill="#FFFFFF" d="M105.361 49.572c0 .575-.469 1.042-1.047 1.042a1.045 1.045 0 0 1-1.047-1.042c0-.575.469-1.042 1.047-1.042s1.047.467 1.047 1.042z" data-color="8"></path>
        <path fill="#FFFFFF" d="M109.289 52.854c0 .575-.469 1.042-1.047 1.042a1.045 1.045 0 0 1-1.047-1.042c0-.575.469-1.042 1.047-1.042s1.047.467 1.047 1.042z" data-color="8"></path>
        <path fill="#FFFFFF" d="M105.295 52.879c0 .575-.469 1.042-1.047 1.042a1.045 1.045 0 0 1-1.047-1.042c0-.575.469-1.042 1.047-1.042s1.047.467 1.047 1.042z" data-color="8"></path>
        <path d="M138.002 46.197l1.257.161a1.065 1.065 0 0 1-.524.137 1.038 1.038 0 0 1-.733-.298z" fill="#FFFFFF" data-color="8"></path>
        <path d="M134.746 46.522c-.521 0-.952-.379-1.032-.876l1.988.255a1.045 1.045 0 0 1-.956.621z" fill="#FFFFFF" data-color="8"></path>
        <path d="M130.85 46.533a1.044 1.044 0 0 1-.948-1.481l1.986.314a1.043 1.043 0 0 1-1.038 1.167z" fill="#FFFFFF" data-color="8"></path>
        <path d="M127.452 44.665c.268.189.451.514.451.866 0 .576-.469 1.042-1.047 1.042a1.044 1.044 0 0 1-1.046-1.042c0-.467.324-.875.749-1.007l.893.141z" fill="#FFFFFF" data-color="8"></path>
        <path fill="#FFFFFF" d="M124.546 45.407c0 .575-.469 1.042-1.047 1.042a1.045 1.045 0 0 1-1.047-1.042c0-.575.469-1.042 1.047-1.042s1.047.467 1.047 1.042z" data-color="8"></path>
        <path fill="#FFFFFF" d="M120.702 45.767c0 .575-.468 1.042-1.046 1.042a1.044 1.044 0 0 1-1.046-1.042c0-.575.468-1.042 1.046-1.042.578 0 1.046.467 1.046 1.042z" data-color="8"></path>
        <path d="M115.186 42.748l1.672.256a1.09 1.09 0 0 1-.744.308 1.07 1.07 0 0 1-.928-.564z" fill="#FFFFFF" data-color="8"></path>
        <path d="M111.836 43.243a1.044 1.044 0 0 1-1.039-1.162l2.066.316a1.046 1.046 0 0 1-1.027.846z" fill="#FFFFFF" data-color="8"></path>
        <path fill="#FFFFFF" d="M116.811 45.779c0 .575-.469 1.042-1.047 1.042a1.045 1.045 0 0 1-1.047-1.042c0-.575.469-1.042 1.047-1.042s1.047.467 1.047 1.042z" data-color="8"></path>
        <path fill="#FFFFFF" d="M112.817 45.805c0 .575-.469 1.042-1.047 1.042a1.045 1.045 0 0 1-1.047-1.042c0-.575.469-1.042 1.047-1.042s1.047.467 1.047 1.042z" data-color="8"></path>
        <path fill="#FFFFFF" d="M109.397 45.626c0 .575-.468 1.042-1.046 1.042a1.044 1.044 0 0 1-1.046-1.042c0-.575.468-1.042 1.046-1.042.578 0 1.046.467 1.046 1.042z" data-color="8"></path>
        <path fill="#FFFFFF" d="M105.403 45.651c0 .575-.468 1.042-1.046 1.042a1.044 1.044 0 0 1-1.046-1.042c0-.575.468-1.042 1.046-1.042.578 0 1.046.467 1.046 1.042z" data-color="8"></path>
        <path d="M100.933 46.595a1.045 1.045 0 0 1-1.515-.931 1.044 1.044 0 0 1 1.515-.931 1.04 1.04 0 0 1 0 1.862z" fill="#FFFFFF" data-color="8"></path>
        <path d="M122.502 64.246a1.038 1.038 0 0 1-.007-1.368l.007 1.368z" fill="#FFFFFF" data-color="8"></path>
        <path fill="#FFFFFF" d="M120.598 63.585c0 .575-.469 1.042-1.047 1.042a1.045 1.045 0 0 1-1.047-1.042c0-.575.469-1.042 1.047-1.042s1.047.467 1.047 1.042z" data-color="8"></path>
        <path d="M122.511 66.523l.004.698a1.042 1.042 0 0 1-.004-.698z" fill="#FFFFFF" data-color="8"></path>
        <path fill="#FFFFFF" d="M120.532 66.892c0 .575-.468 1.042-1.046 1.042a1.044 1.044 0 0 1-1.046-1.042c0-.575.468-1.042 1.046-1.042.578 0 1.046.467 1.046 1.042z" data-color="8"></path>
        <path fill="#FFFFFF" d="M116.426 63.596c0 .575-.469 1.042-1.047 1.042a1.045 1.045 0 0 1-1.047-1.042c0-.575.469-1.042 1.047-1.042s1.047.467 1.047 1.042z" data-color="8"></path>
        <path fill="#FFFFFF" d="M112.712 63.623c0 .575-.469 1.042-1.047 1.042a1.045 1.045 0 0 1-1.047-1.042c0-.575.469-1.042 1.047-1.042s1.047.467 1.047 1.042z" data-color="8"></path>
        <path fill="#FFFFFF" d="M116.64 66.905c0 .575-.469 1.042-1.047 1.042a1.045 1.045 0 0 1-1.047-1.042c0-.575.469-1.042 1.047-1.042s1.047.467 1.047 1.042z" data-color="8"></path>
        <path fill="#FFFFFF" d="M112.646 66.93c0 .575-.469 1.042-1.047 1.042a1.045 1.045 0 0 1-1.047-1.042c0-.575.469-1.042 1.047-1.042s1.047.467 1.047 1.042z" data-color="8"></path>
        <path fill="#FFFFFF" d="M109.013 63.442c0 .575-.469 1.042-1.047 1.042a1.045 1.045 0 0 1-1.047-1.042c0-.575.469-1.042 1.047-1.042s1.047.467 1.047 1.042z" data-color="8"></path>
        <path fill="#FFFFFF" d="M105.299 63.469c0 .575-.469 1.042-1.047 1.042a1.045 1.045 0 0 1-1.047-1.042c0-.575.469-1.042 1.047-1.042s1.047.467 1.047 1.042z" data-color="8"></path>
        <path fill="#FFFFFF" d="M109.226 66.751c0 .575-.468 1.042-1.046 1.042a1.044 1.044 0 0 1-1.046-1.042c0-.575.468-1.042 1.046-1.042.578 0 1.046.467 1.046 1.042z" data-color="8"></path>
        <path fill="#FFFFFF" d="M105.233 66.776c0 .575-.469 1.042-1.047 1.042a1.045 1.045 0 0 1-1.047-1.042c0-.575.469-1.042 1.047-1.042s1.047.467 1.047 1.042z" data-color="8"></path>
        <path fill="#FFFFFF" d="M139.364 56.007c0 .575-.468 1.042-1.046 1.042a1.044 1.044 0 0 1-1.046-1.042c0-.575.468-1.042 1.046-1.042.578 0 1.046.467 1.046 1.042z" data-color="8"></path>
        <path fill="#FFFFFF" d="M135.65 56.034c0 .575-.468 1.042-1.046 1.042a1.044 1.044 0 0 1-1.046-1.042c0-.575.468-1.042 1.046-1.042.578 0 1.046.467 1.046 1.042z" data-color="8"></path>
        <path d="M138.677 58.324c.578 0 1.046.467 1.046 1.042 0 .056-.009.116-.018.17-.47.01-1.196.019-2.054.037a1.046 1.046 0 0 1 1.026-1.249z" fill="#FFFFFF" data-color="8"></path>
        <path d="M134.682 58.351a1.044 1.044 0 0 1 1.022 1.264l-2.033.042a1.044 1.044 0 0 1 1.011-1.306z" fill="#FFFFFF" data-color="8"></path>
        <path fill="#FFFFFF" d="M131.479 56.045c0 .575-.469 1.042-1.047 1.042a1.045 1.045 0 0 1-1.047-1.042c0-.575.469-1.042 1.047-1.042s1.047.467 1.047 1.042z" data-color="8"></path>
        <path fill="#FFFFFF" d="M127.765 56.072c0 .575-.469 1.042-1.047 1.042a1.045 1.045 0 0 1-1.047-1.042c0-.575.469-1.042 1.047-1.042s1.047.467 1.047 1.042z" data-color="8"></path>
        <path d="M130.785 58.351a1.045 1.045 0 0 1 1.006 1.33c-.898.018-1.621.031-1.999.037a1.043 1.043 0 0 1 .993-1.367z" fill="#FFFFFF" data-color="8"></path>
        <path d="M126.801 58.391c.578 0 1.046.467 1.046 1.042 0 .176-.056.362-.133.508-.525.062-1.09.125-1.678.199a1.072 1.072 0 0 1-.282-.707c0-.575.469-1.042 1.047-1.042z" fill="#FFFFFF" data-color="8"></path>
        <path d="M123.587 58.748a1.044 1.044 0 0 1 1.093.993.967.967 0 0 1-.093.477c-.552.068-1.114.157-1.698.258-.176-.177-.287-.371-.3-.639a1.045 1.045 0 0 1 .998-1.089z" fill="#FFFFFF" data-color="8"></path>
        <path fill="#FFFFFF" d="M124.271 55.995c0 .575-.469 1.042-1.047 1.042a1.045 1.045 0 0 1-1.047-1.042c0-.575.469-1.042 1.047-1.042s1.047.467 1.047 1.042z" data-color="8"></path>
        <path fill="#FFFFFF" d="M120.707 56.357c0 .575-.469 1.042-1.047 1.042a1.045 1.045 0 0 1-1.047-1.042c0-.575.469-1.042 1.047-1.042s1.047.467 1.047 1.042z" data-color="8"></path>
        <path fill="#FFFFFF" d="M120.642 59.664c0 .575-.469 1.042-1.047 1.042a1.045 1.045 0 0 1-1.047-1.042c0-.575.469-1.042 1.047-1.042s1.047.467 1.047 1.042z" data-color="8"></path>
        <path fill="#FFFFFF" d="M116.534 56.368c0 .575-.468 1.042-1.046 1.042a1.044 1.044 0 0 1-1.046-1.042c0-.575.468-1.042 1.046-1.042.578 0 1.046.467 1.046 1.042z" data-color="8"></path>
        <path fill="#FFFFFF" d="M112.82 56.395c0 .575-.468 1.042-1.046 1.042a1.044 1.044 0 0 1-1.046-1.042c0-.575.468-1.042 1.046-1.042.578 0 1.046.467 1.046 1.042z" data-color="8"></path>
        <path fill="#FFFFFF" d="M116.749 59.677c0 .575-.469 1.042-1.047 1.042a1.045 1.045 0 0 1-1.047-1.042c0-.575.469-1.042 1.047-1.042s1.047.467 1.047 1.042z" data-color="8"></path>
        <path fill="#FFFFFF" d="M112.755 59.702c0 .575-.469 1.042-1.047 1.042a1.045 1.045 0 0 1-1.047-1.042c0-.575.469-1.042 1.047-1.042s1.047.467 1.047 1.042z" data-color="8"></path>
        <path fill="#FFFFFF" d="M109.122 56.214c0 .575-.469 1.042-1.047 1.042a1.045 1.045 0 0 1-1.047-1.042c0-.575.469-1.042 1.047-1.042s1.047.467 1.047 1.042z" data-color="8"></path>
        <path fill="#FFFFFF" d="M105.408 56.241c0 .575-.469 1.042-1.047 1.042a1.045 1.045 0 0 1-1.047-1.042c0-.575.469-1.042 1.047-1.042s1.047.467 1.047 1.042z" data-color="8"></path>
        <path fill="#FFFFFF" d="M109.336 59.523c0 .575-.469 1.042-1.047 1.042a1.045 1.045 0 0 1-1.047-1.042c0-.575.469-1.042 1.047-1.042s1.047.467 1.047 1.042z" data-color="8"></path>
        <path fill="#FFFFFF" d="M105.341 59.548c0 .575-.468 1.042-1.046 1.042a1.044 1.044 0 0 1-1.046-1.042c0-.575.468-1.042 1.046-1.042.578 0 1.046.467 1.046 1.042z" data-color="8"></path>
        <path d="M100.933 60.459a1.044 1.044 0 0 1-1.576-.897 1.044 1.044 0 0 1 1.576-.897c.309.181.517.515.517.898a1.042 1.042 0 0 1-.517.896z" fill="#FFFFFF" data-color="8"></path>
        <path d="M122.567 76.813l.011 2.032a1.044 1.044 0 0 1-.821-1.017c0-.495.346-.908.81-1.015z" fill="#FFFFFF" data-color="8"></path>
        <path fill="#FFFFFF" d="M120.114 77.855c0 .575-.468 1.042-1.046 1.042a1.044 1.044 0 0 1-1.046-1.042c0-.575.468-1.042 1.046-1.042.578 0 1.046.467 1.046 1.042z" data-color="8"></path>
        <path d="M122.583 80.189l.01 1.901a1.04 1.04 0 1 1-.01-1.901z" fill="#FFFFFF" data-color="8"></path>
        <path fill="#FFFFFF" d="M120.05 81.162c0 .575-.469 1.042-1.047 1.042a1.045 1.045 0 0 1-1.047-1.042c0-.575.469-1.042 1.047-1.042s1.047.467 1.047 1.042z" data-color="8"></path>
        <path fill="#FFFFFF" d="M115.943 77.866c0 .575-.469 1.042-1.047 1.042a1.045 1.045 0 0 1-1.047-1.042c0-.575.469-1.042 1.047-1.042s1.047.467 1.047 1.042z" data-color="8"></path>
        <path fill="#FFFFFF" d="M112.229 77.893c0 .575-.469 1.042-1.047 1.042a1.045 1.045 0 0 1-1.047-1.042c0-.575.469-1.042 1.047-1.042s1.047.467 1.047 1.042z" data-color="8"></path>
        <path fill="#FFFFFF" d="M116.157 81.175c0 .575-.469 1.042-1.047 1.042a1.045 1.045 0 0 1-1.047-1.042c0-.575.469-1.042 1.047-1.042s1.047.467 1.047 1.042z" data-color="8"></path>
        <path fill="#FFFFFF" d="M112.162 81.2c0 .575-.468 1.042-1.046 1.042a1.044 1.044 0 0 1-1.046-1.042c0-.575.468-1.042 1.046-1.042.578 0 1.046.467 1.046 1.042z" data-color="8"></path>
        <path fill="#FFFFFF" d="M108.53 77.712c0 .575-.469 1.042-1.047 1.042a1.045 1.045 0 0 1-1.047-1.042c0-.575.469-1.042 1.047-1.042s1.047.467 1.047 1.042z" data-color="8"></path>
        <path fill="#FFFFFF" d="M104.816 77.74c0 .575-.469 1.042-1.047 1.042a1.045 1.045 0 0 1-1.047-1.042c0-.575.469-1.042 1.047-1.042s1.047.467 1.047 1.042z" data-color="8"></path>
        <path fill="#FFFFFF" d="M108.744 81.021c0 .575-.469 1.042-1.047 1.042a1.045 1.045 0 0 1-1.047-1.042c0-.575.469-1.042 1.047-1.042s1.047.467 1.047 1.042z" data-color="8"></path>
        <path fill="#FFFFFF" d="M104.75 81.046c0 .575-.469 1.042-1.047 1.042a1.045 1.045 0 0 1-1.047-1.042c0-.575.469-1.042 1.047-1.042s1.047.467 1.047 1.042z" data-color="8"></path>
        <path d="M122.535 71.573a1.04 1.04 0 1 1-.01-1.942l.01 1.942z" fill="#FFFFFF" data-color="8"></path>
        <path fill="#FFFFFF" d="M120.224 70.627c0 .575-.469 1.042-1.047 1.042a1.045 1.045 0 0 1-1.047-1.042c0-.575.469-1.042 1.047-1.042s1.047.467 1.047 1.042z" data-color="8"></path>
        <path d="M122.078 73.909c0-.362.186-.681.468-.868l.009 1.741a1.039 1.039 0 0 1-.477-.873z" fill="#FFFFFF" data-color="8"></path>
        <path fill="#FFFFFF" d="M120.159 73.934c0 .575-.469 1.042-1.047 1.042a1.045 1.045 0 0 1-1.047-1.042c0-.575.469-1.042 1.047-1.042s1.047.467 1.047 1.042z" data-color="8"></path>
        <path fill="#FFFFFF" d="M116.052 70.638c0 .575-.469 1.042-1.047 1.042a1.045 1.045 0 0 1-1.047-1.042c0-.575.469-1.042 1.047-1.042s1.047.467 1.047 1.042z" data-color="8"></path>
        <path fill="#FFFFFF" d="M112.338 70.665c0 .575-.469 1.042-1.047 1.042a1.045 1.045 0 0 1-1.047-1.042c0-.575.469-1.042 1.047-1.042s1.047.467 1.047 1.042z" data-color="8"></path>
        <path fill="#FFFFFF" d="M116.265 73.947c0 .575-.468 1.042-1.046 1.042a1.044 1.044 0 0 1-1.046-1.042c0-.575.468-1.042 1.046-1.042.578 0 1.046.467 1.046 1.042z" data-color="8"></path>
        <path fill="#FFFFFF" d="M112.272 73.972c0 .575-.469 1.042-1.047 1.042a1.045 1.045 0 0 1-1.047-1.042c0-.575.469-1.042 1.047-1.042s1.047.467 1.047 1.042z" data-color="8"></path>
        <path fill="#FFFFFF" d="M108.638 70.484c0 .575-.468 1.042-1.046 1.042a1.044 1.044 0 0 1-1.046-1.042c0-.575.468-1.042 1.046-1.042.578 0 1.046.467 1.046 1.042z" data-color="8"></path>
        <path fill="#FFFFFF" d="M104.924 70.511c0 .575-.468 1.042-1.046 1.042a1.044 1.044 0 0 1-1.046-1.042c0-.575.468-1.042 1.046-1.042.578 0 1.046.467 1.046 1.042z" data-color="8"></path>
        <path fill="#FFFFFF" d="M108.852 73.793c0 .575-.468 1.042-1.046 1.042a1.044 1.044 0 0 1-1.046-1.042c0-.575.468-1.042 1.046-1.042.578 0 1.046.467 1.046 1.042z" data-color="8"></path>
        <path fill="#FFFFFF" d="M104.859 73.818c0 .575-.469 1.042-1.047 1.042a1.045 1.045 0 0 1-1.047-1.042c0-.575.469-1.042 1.047-1.042s1.047.467 1.047 1.042z" data-color="8"></path>
        <path d="M122.623 90.906l.016.001.011 2.082-.027.001a1.044 1.044 0 0 1-1.046-1.042c0-.576.469-1.042 1.046-1.042z" fill="#FFFFFF" data-color="8"></path>
        <path d="M122.538 94.213c.033 0 .086-.003.119 0l.011 2.084c-.036.004-.093 0-.13 0a1.043 1.043 0 0 1 0-2.084z" fill="#FFFFFF" data-color="8"></path>
        <path fill="#FFFFFF" d="M119.478 91.959c0 .575-.469 1.042-1.047 1.042a1.045 1.045 0 0 1-1.047-1.042c0-.575.469-1.042 1.047-1.042s1.047.467 1.047 1.042z" data-color="8"></path>
        <path fill="#FFFFFF" d="M115.763 91.986c0 .575-.468 1.042-1.046 1.042a1.044 1.044 0 0 1-1.046-1.042c0-.575.468-1.042 1.046-1.042.578 0 1.046.467 1.046 1.042z" data-color="8"></path>
        <path fill="#FFFFFF" d="M119.692 95.268c0 .575-.469 1.042-1.047 1.042a1.045 1.045 0 0 1-1.047-1.042c0-.575.469-1.042 1.047-1.042s1.047.467 1.047 1.042z" data-color="8"></path>
        <path fill="#FFFFFF" d="M115.698 95.293c0 .575-.469 1.042-1.047 1.042a1.045 1.045 0 0 1-1.047-1.042c0-.575.469-1.042 1.047-1.042s1.047.467 1.047 1.042z" data-color="8"></path>
        <path fill="#FFFFFF" d="M112.065 91.805c0 .575-.469 1.042-1.047 1.042a1.045 1.045 0 0 1-1.047-1.042c0-.575.469-1.042 1.047-1.042s1.047.467 1.047 1.042z" data-color="8"></path>
        <path fill="#FFFFFF" d="M108.351 91.832c0 .575-.469 1.042-1.047 1.042a1.045 1.045 0 0 1-1.047-1.042c0-.575.469-1.042 1.047-1.042s1.047.467 1.047 1.042z" data-color="8"></path>
        <path fill="#FFFFFF" d="M112.279 95.114c0 .575-.469 1.042-1.047 1.042a1.045 1.045 0 0 1-1.047-1.042c0-.575.469-1.042 1.047-1.042s1.047.467 1.047 1.042z" data-color="8"></path>
        <path fill="#FFFFFF" d="M108.284 95.139c0 .575-.468 1.042-1.046 1.042a1.044 1.044 0 0 1-1.046-1.042c0-.575.468-1.042 1.046-1.042.578 0 1.046.467 1.046 1.042z" data-color="8"></path>
        <path fill="#FFFFFF" d="M104.178 91.843c0 .575-.468 1.042-1.046 1.042a1.044 1.044 0 0 1-1.046-1.042c0-.575.468-1.042 1.046-1.042.578 0 1.046.467 1.046 1.042z" data-color="8"></path>
        <path fill="#FFFFFF" d="M104.393 95.152c0 .575-.469 1.042-1.047 1.042a1.045 1.045 0 0 1-1.047-1.042c0-.575.469-1.042 1.047-1.042s1.047.467 1.047 1.042z" data-color="8"></path>
        <path d="M122.599 83.696l.011 2.068a1.043 1.043 0 0 1-.927-1.035c0-.531.4-.969.916-1.033z" fill="#FFFFFF" data-color="8"></path>
        <path d="M122.619 87.053l.011 2.074c-.561-.019-1.03-.477-1.03-1.04 0-.561.463-1.009 1.019-1.034z" fill="#FFFFFF" data-color="8"></path>
        <path fill="#FFFFFF" d="M119.587 84.73c0 .575-.469 1.042-1.047 1.042a1.045 1.045 0 0 1-1.047-1.042c0-.575.469-1.042 1.047-1.042s1.047.467 1.047 1.042z" data-color="8"></path>
        <path fill="#FFFFFF" d="M115.873 84.758c0 .575-.469 1.042-1.047 1.042a1.045 1.045 0 0 1-1.047-1.042c0-.575.469-1.042 1.047-1.042s1.047.467 1.047 1.042z" data-color="8"></path>
        <path fill="#FFFFFF" d="M119.8 88.04c0 .575-.468 1.042-1.046 1.042a1.044 1.044 0 0 1-1.046-1.042c0-.575.468-1.042 1.046-1.042.578 0 1.046.467 1.046 1.042z" data-color="8"></path>
        <path fill="#FFFFFF" d="M115.806 88.065c0 .575-.468 1.042-1.046 1.042a1.044 1.044 0 0 1-1.046-1.042c0-.575.468-1.042 1.046-1.042.578 0 1.046.467 1.046 1.042z" data-color="8"></path>
        <path fill="#FFFFFF" d="M112.174 84.577c0 .575-.469 1.042-1.047 1.042a1.045 1.045 0 0 1-1.047-1.042c0-.575.469-1.042 1.047-1.042s1.047.467 1.047 1.042z" data-color="8"></path>
        <path fill="#FFFFFF" d="M108.46 84.604c0 .575-.469 1.042-1.047 1.042a1.045 1.045 0 0 1-1.047-1.042c0-.575.469-1.042 1.047-1.042s1.047.467 1.047 1.042z" data-color="8"></path>
        <path fill="#FFFFFF" d="M112.388 87.886c0 .575-.469 1.042-1.047 1.042a1.045 1.045 0 0 1-1.047-1.042c0-.575.469-1.042 1.047-1.042s1.047.467 1.047 1.042z" data-color="8"></path>
        <path fill="#FFFFFF" d="M108.394 87.911c0 .575-.469 1.042-1.047 1.042a1.045 1.045 0 0 1-1.047-1.042c0-.575.469-1.042 1.047-1.042s1.047.467 1.047 1.042z" data-color="8"></path>
        <path fill="#FFFFFF" d="M104.287 84.615c0 .575-.468 1.042-1.046 1.042a1.044 1.044 0 0 1-1.046-1.042c0-.575.468-1.042 1.046-1.042.578 0 1.046.467 1.046 1.042z" data-color="8"></path>
        <path fill="#FFFFFF" d="M104.502 87.924c0 .575-.469 1.042-1.047 1.042a1.045 1.045 0 0 1-1.047-1.042c0-.575.469-1.042 1.047-1.042s1.047.467 1.047 1.042z" data-color="8"></path>
        <path d="M122.082 97.638c.212 0 .417.046.593.186l.009 1.719a1.112 1.112 0 0 1-.602.179 1.045 1.045 0 0 1-1.047-1.042 1.046 1.046 0 0 1 1.047-1.042z" fill="#FFFFFF" data-color="8"></path>
        <path fill="#FFFFFF" d="M119.415 98.707c0 .575-.469 1.042-1.047 1.042a1.045 1.045 0 0 1-1.047-1.042c0-.575.469-1.042 1.047-1.042s1.047.467 1.047 1.042z" data-color="8"></path>
        <path d="M122.318 100.947c.133 0 .259.026.376.07l.006 1.117-1.418-.007a1.043 1.043 0 0 1 1.036-1.18z" fill="#FFFFFF" data-color="8"></path>
        <path d="M118.302 100.972a1.044 1.044 0 0 1 1.041 1.145l-2.083-.011a1.046 1.046 0 0 1 1.042-1.134z" fill="#FFFFFF" data-color="8"></path>
        <path fill="#FFFFFF" d="M115.716 98.526c0 .575-.469 1.042-1.047 1.042a1.045 1.045 0 0 1-1.047-1.042c0-.575.469-1.042 1.047-1.042s1.047.467 1.047 1.042z" data-color="8"></path>
        <path fill="#FFFFFF" d="M112.002 98.554c0 .575-.469 1.042-1.047 1.042a1.045 1.045 0 0 1-1.047-1.042c0-.575.469-1.042 1.047-1.042s1.047.467 1.047 1.042z" data-color="8"></path>
        <path d="M114.883 100.793a1.044 1.044 0 0 1 1.011 1.305l-2.026-.011a1.045 1.045 0 0 1 1.015-1.294z" fill="#FFFFFF" data-color="8"></path>
        <path d="M110.889 100.818a1.044 1.044 0 0 1 1.023 1.26l-2.049-.011a1.046 1.046 0 0 1 1.026-1.249z" fill="#FFFFFF" data-color="8"></path>
        <path fill="#FFFFFF" d="M107.83 98.564c0 .575-.469 1.042-1.047 1.042a1.045 1.045 0 0 1-1.047-1.042c0-.575.469-1.042 1.047-1.042s1.047.467 1.047 1.042z" data-color="8"></path>
        <path fill="#FFFFFF" d="M104.116 98.592c0 .575-.469 1.042-1.047 1.042a1.045 1.045 0 0 1-1.047-1.042c0-.575.469-1.042 1.047-1.042s1.047.467 1.047 1.042z" data-color="8"></path>
        <path d="M106.997 100.831a1.045 1.045 0 0 1 1.03 1.226l-2.06-.011a1.043 1.043 0 0 1 1.03-1.215z" fill="#FFFFFF" data-color="8"></path>
        <path d="M103.003 100.856a1.045 1.045 0 0 1 1.037 1.18l-2.074-.011a1.044 1.044 0 0 1 1.037-1.169z" fill="#FFFFFF" data-color="8"></path>
        <path d="M54.142 161.354h.129c2.671 0 7.478-3.84 13.536-10.811 4.765-5.483 14.192-19.296 14.287-19.435l.026-.037 18.829-13.914 2.426-1.793 23.747 13.739.357 21.367.475 9.587c.052 1.117.505 4.077 1.954 4.366l.226.045-.18 3.84.564-.058.056.532-1.184.123.188-4.018c-1.943-.67-2.151-4.63-2.159-4.804l-.475-9.594-.353-21.074-23.179-13.411-2.462 1.819-18.437 13.624c-.553.809-9.637 14.082-14.299 19.447-7.729 8.894-11.766 10.911-13.811 10.993l-1.608 2.005-.419-.334 1.766-2.204z" fill="#FFB90F" data-color="3"></path>
        <path d="M57.814 140.6l.005-.007 11.553-12.698 12.142-26.087.39.18-12.17 26.146-11.586 12.733a96.034 96.034 0 0 0-4.805 6.929c-2.998 4.802-4.282 8.137-3.714 9.646l.05.132-2.034 1.943-.297-.309 1.834-1.752c-1.211-4.06 8.226-16.33 8.632-16.856z" fill="#FFB90F" data-color="3"></path>
    </g>
</svg>